<?xml version="1.0" encoding="utf-8"?>
<!-- Generator: Adobe Illustrator 21.1.0, SVG Export Plug-In . SVG Version: 6.00 Build 0)  -->
<svg version="1.0" id="Layer_1" xmlns="http://www.w3.org/2000/svg" xmlns:xlink="http://www.w3.org/1999/xlink" x="0px" y="0px"
	 viewBox="0 0 200 200" enable-background="new 0 0 200 200" xml:space="preserve">
<g>
	<path fill="#FFFFFF" d="M100,195c-52.4,0-95-42.6-95-95C5,47.6,47.6,5,100,5c52.4,0,95,42.6,95,95C195,152.4,152.4,195,100,195z
		 M100,13c-48,0-87,39-87,87c0,48,39,87,87,87c48,0,87-39,87-87C187,52,148,13,100,13z"/>
</g>
<g>
	<path fill="#FFFFFF" d="M128,91.5v-9c0-15.4-12.6-28-28-28s-28,12.6-28,28v9H61.7v54h76.7v-54H128z M84,82.5c0-8.8,7.2-16,16-16
		s16,7.2,16,16v9H84V82.5z"/>
</g>
</svg>
