<?xml version="1.0" encoding="utf-8"?>
<!-- Generator: Adobe Illustrator 19.0.0, SVG Export Plug-In . SVG Version: 6.00 Build 0)  -->
<svg version="1.1" id="Layer_2" xmlns="http://www.w3.org/2000/svg" xmlns:xlink="http://www.w3.org/1999/xlink" x="0px" y="0px"
	 viewBox="-49 138 500 225" style="enable-background:new -49 138 500 225;" xml:space="preserve">
<style type="text/css">
	.st0{fill:#848689;}
</style>
<g>
	<g>
		<rect x="185" y="250.7" class="st0" width="31.9" height="7.2"/>
		<rect x="139.9" y="250.7" class="st0" width="31.9" height="7.2"/>
		<g>
			<path class="st0" d="M0.4,257.5h-9.2v-48.5h-16.6v-7.9H17v7.9H0.4V257.5z"/>
			<path class="st0" d="M71.7,257.5h-9.3v-25.4h-26v25.4h-9.2v-56.4h9.2v23.1h26v-23.1h9.3V257.5z"/>
			<path class="st0" d="M97.4,235v22.5h-9.2v-56.4h15.9c7.3,0,12.7,1.4,16.2,4.1c3.5,2.7,5.2,6.8,5.2,12.3c0,7-3.7,12-11,15l15.9,25
				H120L106.6,235H97.4z M97.4,227.4h6.4c4.3,0,7.4-0.8,9.3-2.4c1.9-1.6,2.9-4,2.9-7.1c0-3.2-1-5.5-3.1-6.9
				c-2.1-1.4-5.2-2.1-9.4-2.1h-6.1V227.4z"/>
			<path class="st0" d="M238.7,257.5h-9.1v-56.4h31.8v7.8h-22.7v17.6H260v7.8h-21.3V257.5z"/>
			<path class="st0" d="M323.3,229.3c0,9.2-2.3,16.3-6.9,21.4s-11.1,7.6-19.5,7.6c-8.5,0-15-2.5-19.6-7.6
				c-4.6-5.1-6.8-12.2-6.8-21.5c0-9.3,2.3-16.5,6.9-21.4c4.6-5,11.1-7.5,19.6-7.5c8.4,0,14.9,2.5,19.4,7.6
				C321,212.9,323.3,220.1,323.3,229.3z M280.3,229.3c0,6.9,1.4,12.2,4.2,15.8c2.8,3.6,7,5.4,12.5,5.4c5.5,0,9.6-1.8,12.4-5.3
				c2.8-3.5,4.2-8.8,4.2-15.9c0-6.9-1.4-12.2-4.1-15.7c-2.8-3.6-6.9-5.4-12.4-5.4c-5.5,0-9.7,1.8-12.5,5.4
				C281.7,217.1,280.3,222.4,280.3,229.3z"/>
			<path class="st0" d="M337.1,257.5v-56.4h9.2v48.5h23.9v7.9H337.1z"/>
			<path class="st0" d="M427.4,228.8c0,9.3-2.6,16.4-7.8,21.3c-5.2,4.9-12.6,7.4-22.3,7.4h-15.8v-56.4H399c9,0,16,2.4,20.9,7.3
				C424.9,213.3,427.4,220.1,427.4,228.8z M417.7,229.1c0-13.5-6.3-20.2-18.9-20.2h-8v40.9h6.6C410.9,249.8,417.7,242.9,417.7,229.1
				z"/>
			<rect x="185" y="201.4" class="st0" width="31.9" height="7.2"/>
			<rect x="185" y="225.3" class="st0" width="30.4" height="7.2"/>
			<rect x="139.9" y="201.4" class="st0" width="31.9" height="7.2"/>
			<rect x="139.9" y="225.3" class="st0" width="30.4" height="7.2"/>
		</g>
	</g>
	<path class="st0" d="M-12.5,295.3c-1.9,0-3.4-0.6-4.4-1.7c-1-1.1-1.5-2.7-1.5-4.8c0-2.1,0.5-3.8,1.6-4.9s2.5-1.7,4.5-1.7
		c1.3,0,2.5,0.2,3.6,0.7l-0.8,2.2c-1.1-0.4-2.1-0.7-2.8-0.7c-2.2,0-3.3,1.5-3.3,4.4c0,1.4,0.3,2.5,0.8,3.2c0.5,0.7,1.3,1.1,2.4,1.1
		c1.2,0,2.3-0.3,3.4-0.9v2.3c-0.5,0.3-1,0.5-1.5,0.6S-11.7,295.3-12.5,295.3z"/>
	<path class="st0" d="M18.9,288.7c0,2.1-0.5,3.7-1.6,4.8c-1.1,1.2-2.5,1.7-4.4,1.7c-1.2,0-2.2-0.3-3.1-0.8s-1.6-1.3-2.1-2.3
		c-0.5-1-0.7-2.2-0.7-3.5c0-2.1,0.5-3.7,1.6-4.8s2.5-1.7,4.5-1.7c1.8,0,3.3,0.6,4.4,1.8C18.3,285.1,18.9,286.7,18.9,288.7z
		 M9.6,288.7c0,2.9,1.1,4.4,3.2,4.4c2.1,0,3.2-1.5,3.2-4.4c0-2.9-1.1-4.3-3.2-4.3c-1.1,0-1.9,0.4-2.5,1.1
		C9.9,286.3,9.6,287.3,9.6,288.7z"/>
	<path class="st0" d="M45.9,295.1h-2.7v-7.8c0-1-0.2-1.7-0.6-2.2c-0.4-0.5-1-0.7-1.9-0.7c-1.1,0-2,0.3-2.5,1
		c-0.5,0.7-0.8,1.8-0.8,3.4v6.3h-2.7v-12.7h2.1l0.4,1.7h0.1c0.4-0.6,0.9-1.1,1.6-1.4s1.5-0.5,2.3-0.5c3,0,4.6,1.5,4.6,4.6V295.1z"/>
	<path class="st0" d="M73.6,295.1h-2.7v-7.8c0-1-0.2-1.7-0.6-2.2c-0.4-0.5-1-0.7-1.9-0.7c-1.1,0-2,0.3-2.5,1
		c-0.5,0.7-0.8,1.8-0.8,3.4v6.3h-2.7v-12.7h2.1l0.4,1.7h0.1c0.4-0.6,0.9-1.1,1.6-1.4c0.7-0.3,1.5-0.5,2.3-0.5c3,0,4.6,1.5,4.6,4.6
		V295.1z"/>
	<path class="st0" d="M96.5,295.3c-2,0-3.5-0.6-4.6-1.7c-1.1-1.2-1.7-2.7-1.7-4.7c0-2.1,0.5-3.7,1.5-4.9c1-1.2,2.4-1.8,4.2-1.8
		c1.7,0,3,0.5,4,1.5c1,1,1.5,2.4,1.5,4.2v1.5H93c0,1.2,0.4,2.2,1,2.8c0.6,0.7,1.5,1,2.6,1c0.7,0,1.4-0.1,2.1-0.2
		c0.6-0.1,1.3-0.4,2.1-0.7v2.2c-0.7,0.3-1.3,0.5-2,0.7S97.4,295.3,96.5,295.3z M96,284.2c-0.9,0-1.5,0.3-2.1,0.8
		c-0.5,0.5-0.8,1.3-0.9,2.4h5.8c0-1-0.3-1.8-0.8-2.4C97.5,284.5,96.9,284.2,96,284.2z"/>
	<path class="st0" d="M122.4,295.3c-1.9,0-3.4-0.6-4.4-1.7c-1-1.1-1.5-2.7-1.5-4.8c0-2.1,0.5-3.8,1.6-4.9c1-1.1,2.5-1.7,4.5-1.7
		c1.3,0,2.5,0.2,3.6,0.7l-0.8,2.2c-1.1-0.4-2.1-0.7-2.8-0.7c-2.2,0-3.3,1.5-3.3,4.4c0,1.4,0.3,2.5,0.8,3.2c0.5,0.7,1.3,1.1,2.4,1.1
		c1.2,0,2.3-0.3,3.4-0.9v2.3c-0.5,0.3-1,0.5-1.5,0.6S123.2,295.3,122.4,295.3z"/>
	<path class="st0" d="M147.2,293.1c0.7,0,1.3-0.1,2-0.3v2c-0.3,0.1-0.7,0.2-1.2,0.3c-0.5,0.1-1,0.1-1.5,0.1c-2.6,0-3.8-1.3-3.8-4
		v-6.8H141v-1.2l1.9-1l0.9-2.7h1.7v2.8h3.6v2h-3.6v6.8c0,0.6,0.2,1.1,0.5,1.4C146.3,293,146.7,293.1,147.2,293.1z"/>
	<path class="st0" d="M164.4,279.1c0-0.5,0.1-0.9,0.4-1.1c0.3-0.3,0.6-0.4,1.1-0.4c0.5,0,0.8,0.1,1.1,0.4c0.3,0.3,0.4,0.6,0.4,1.1
		c0,0.5-0.1,0.8-0.4,1.1c-0.3,0.3-0.6,0.4-1.1,0.4c-0.5,0-0.9-0.1-1.1-0.4C164.5,279.9,164.4,279.5,164.4,279.1z M167.3,295.1h-2.7
		v-12.7h2.7V295.1z"/>
	<path class="st0" d="M195.1,295.1h-2.7v-7.8c0-1-0.2-1.7-0.6-2.2c-0.4-0.5-1-0.7-1.9-0.7c-1.1,0-2,0.3-2.5,1
		c-0.5,0.7-0.8,1.8-0.8,3.4v6.3h-2.7v-12.7h2.1l0.4,1.7h0.1c0.4-0.6,0.9-1.1,1.6-1.4s1.5-0.5,2.3-0.5c3,0,4.6,1.5,4.6,4.6V295.1z"/>
	<path class="st0" d="M223.1,282.4v1.5l-2.2,0.4c0.2,0.3,0.4,0.6,0.5,1s0.2,0.8,0.2,1.2c0,1.3-0.5,2.3-1.4,3.1
		c-0.9,0.7-2.1,1.1-3.7,1.1c-0.4,0-0.8,0-1.1-0.1c-0.6,0.4-0.9,0.8-0.9,1.3c0,0.3,0.1,0.5,0.4,0.7c0.3,0.1,0.8,0.2,1.5,0.2h2.2
		c1.4,0,2.5,0.3,3.2,0.9c0.7,0.6,1.1,1.5,1.1,2.6c0,1.4-0.6,2.5-1.8,3.3c-1.2,0.8-2.9,1.2-5.1,1.2c-1.7,0-3-0.3-4-0.9
		s-1.4-1.5-1.4-2.6c0-0.8,0.2-1.4,0.7-2c0.5-0.5,1.2-0.9,2.1-1.1c-0.4-0.2-0.7-0.4-0.9-0.7c-0.2-0.3-0.3-0.7-0.3-1.1
		c0-0.5,0.1-0.9,0.4-1.2c0.3-0.3,0.7-0.7,1.2-1c-0.7-0.3-1.2-0.7-1.6-1.4c-0.4-0.6-0.6-1.4-0.6-2.2c0-1.4,0.4-2.4,1.3-3.2
		c0.9-0.8,2.1-1.1,3.7-1.1c0.4,0,0.7,0,1.1,0.1c0.4,0.1,0.7,0.1,0.9,0.2H223.1z M213.2,297.1c0,0.6,0.3,1,0.8,1.3
		c0.5,0.3,1.3,0.5,2.2,0.5c1.5,0,2.6-0.2,3.3-0.6c0.7-0.4,1.1-1,1.1-1.7c0-0.5-0.2-0.9-0.6-1.2c-0.4-0.2-1.1-0.3-2.2-0.3h-2
		c-0.8,0-1.4,0.2-1.8,0.5C213.4,295.9,213.2,296.4,213.2,297.1z M214.3,286.5c0,0.8,0.2,1.4,0.6,1.8c0.4,0.4,1,0.6,1.8,0.6
		c1.6,0,2.3-0.8,2.3-2.5c0-0.8-0.2-1.5-0.6-1.9c-0.4-0.4-1-0.7-1.8-0.7c-0.8,0-1.4,0.2-1.8,0.7C214.5,285,214.3,285.7,214.3,286.5z"
		/>
	<path class="st0" d="M255.7,293.1c0.7,0,1.3-0.1,2-0.3v2c-0.3,0.1-0.7,0.2-1.2,0.3c-0.5,0.1-1,0.1-1.5,0.1c-2.6,0-3.8-1.3-3.8-4
		v-6.8h-1.7v-1.2l1.9-1l0.9-2.7h1.7v2.8h3.6v2h-3.6v6.8c0,0.6,0.2,1.1,0.5,1.4C254.7,293,255.1,293.1,255.7,293.1z"/>
	<path class="st0" d="M284.1,295.1h-2.7v-7.8c0-1-0.2-1.7-0.6-2.2c-0.4-0.5-1-0.7-1.9-0.7c-1.1,0-2,0.3-2.5,1
		c-0.5,0.7-0.8,1.8-0.8,3.4v6.3H273v-17.8h2.7v4.5c0,0.7,0,1.5-0.1,2.3h0.2c0.4-0.6,0.9-1.1,1.5-1.4c0.7-0.3,1.4-0.5,2.3-0.5
		c3.1,0,4.6,1.5,4.6,4.6V295.1z"/>
	<path class="st0" d="M307,295.3c-2,0-3.5-0.6-4.6-1.7c-1.1-1.2-1.7-2.7-1.7-4.7c0-2.1,0.5-3.7,1.5-4.9c1-1.2,2.4-1.8,4.2-1.8
		c1.7,0,3,0.5,4,1.5c1,1,1.5,2.4,1.5,4.2v1.5h-8.4c0,1.2,0.4,2.2,1,2.8c0.6,0.7,1.5,1,2.6,1c0.7,0,1.4-0.1,2.1-0.2
		c0.6-0.1,1.3-0.4,2.1-0.7v2.2c-0.7,0.3-1.3,0.5-2,0.7S307.9,295.3,307,295.3z M306.5,284.2c-0.9,0-1.5,0.3-2.1,0.8
		c-0.5,0.5-0.8,1.3-0.9,2.4h5.8c0-1-0.3-1.8-0.8-2.4C308,284.5,307.4,284.2,306.5,284.2z"/>
	<path class="st0" d="M338.5,295.3c-1.6,0-2.8-0.6-3.7-1.7c-0.9-1.1-1.3-2.8-1.3-4.8c0-2.1,0.4-3.7,1.3-4.9c0.9-1.2,2.1-1.7,3.7-1.7
		c1.7,0,2.9,0.6,3.8,1.8h0.1c-0.1-0.9-0.2-1.6-0.2-2.2v-4.6h2.7v17.8h-2.1l-0.5-1.7h-0.1C341.4,294.7,340.1,295.3,338.5,295.3z
		 M339.2,293.1c1.1,0,1.9-0.3,2.4-0.9c0.5-0.6,0.8-1.6,0.8-3v-0.4c0-1.6-0.3-2.7-0.8-3.4c-0.5-0.7-1.3-1-2.4-1
		c-0.9,0-1.7,0.4-2.2,1.2c-0.5,0.8-0.8,1.9-0.8,3.3c0,1.4,0.2,2.5,0.7,3.2C337.5,292.8,338.2,293.1,339.2,293.1z"/>
	<path class="st0" d="M373.6,288.7c0,2.1-0.5,3.7-1.6,4.8c-1.1,1.2-2.5,1.7-4.4,1.7c-1.2,0-2.2-0.3-3.1-0.8
		c-0.9-0.5-1.6-1.3-2.1-2.3c-0.5-1-0.7-2.2-0.7-3.5c0-2.1,0.5-3.7,1.6-4.8s2.5-1.7,4.5-1.7c1.8,0,3.3,0.6,4.4,1.8
		C373.1,285.1,373.6,286.7,373.6,288.7z M364.4,288.7c0,2.9,1.1,4.4,3.2,4.4c2.1,0,3.2-1.5,3.2-4.4c0-2.9-1.1-4.3-3.2-4.3
		c-1.1,0-1.9,0.4-2.5,1.1C364.7,286.3,364.4,287.3,364.4,288.7z"/>
	<path class="st0" d="M395.1,293.1c0.7,0,1.3-0.1,2-0.3v2c-0.3,0.1-0.7,0.2-1.2,0.3c-0.5,0.1-1,0.1-1.5,0.1c-2.6,0-3.8-1.3-3.8-4
		v-6.8h-1.7v-1.2l1.9-1l0.9-2.7h1.7v2.8h3.6v2h-3.6v6.8c0,0.6,0.2,1.1,0.5,1.4C394.1,293,394.5,293.1,395.1,293.1z"/>
	<path class="st0" d="M420.1,291.5c0,1.2-0.5,2.2-1.4,2.8c-0.9,0.7-2.2,1-3.9,1c-1.7,0-3-0.3-4.1-0.8v-2.3c1.5,0.7,2.9,1,4.2,1
		c1.7,0,2.5-0.5,2.5-1.5c0-0.3-0.1-0.6-0.3-0.8c-0.2-0.2-0.5-0.4-0.9-0.7s-1-0.5-1.8-0.8c-1.5-0.6-2.4-1.1-3-1.7
		c-0.5-0.6-0.8-1.3-0.8-2.2c0-1.1,0.4-1.9,1.3-2.5c0.9-0.6,2.1-0.9,3.6-0.9c1.5,0,2.9,0.3,4.2,0.9l-0.9,2c-1.4-0.6-2.5-0.8-3.4-0.8
		c-1.4,0-2.1,0.4-2.1,1.2c0,0.4,0.2,0.7,0.6,1c0.4,0.3,1.2,0.7,2.4,1.1c1,0.4,1.8,0.8,2.3,1.1c0.5,0.3,0.8,0.7,1.1,1.2
		C420,290.3,420.1,290.9,420.1,291.5z"/>
</g>
</svg>
